<svg id="visual" viewBox="0 0 900 450" width="900" height="450" xmlns="http://www.w3.org/2000/svg" xmlns:xlink="http://www.w3.org/1999/xlink" version="1.1"><rect x="0" y="0" width="900" height="450" fill="#1463FF"></rect><g fill="#2971FF"><circle r="12" cx="583" cy="410"></circle><circle r="1" cx="436" cy="45"></circle><circle r="10" cx="120" cy="204"></circle><circle r="3" cx="698" cy="116"></circle><circle r="0" cx="637" cy="172"></circle><circle r="5" cx="625" cy="386"></circle><circle r="6" cx="852" cy="245"></circle><circle r="1" cx="517" cy="265"></circle><circle r="1" cx="210" cy="420"></circle><circle r="4" cx="571" cy="309"></circle><circle r="9" cx="74" cy="375"></circle><circle r="0" cx="890" cy="64"></circle><circle r="5" cx="470" cy="274"></circle><circle r="10" cx="820" cy="59"></circle><circle r="8" cx="10" cy="410"></circle><circle r="6" cx="454" cy="139"></circle><circle r="8" cx="898" cy="313"></circle><circle r="0" cx="826" cy="256"></circle><circle r="1" cx="465" cy="409"></circle><circle r="3" cx="411" cy="44"></circle><circle r="6" cx="159" cy="325"></circle><circle r="5" cx="63" cy="226"></circle><circle r="3" cx="314" cy="105"></circle><circle r="1" cx="16" cy="445"></circle><circle r="6" cx="565" cy="278"></circle><circle r="4" cx="506" cy="402"></circle><circle r="6" cx="415" cy="158"></circle><circle r="3" cx="96" cy="123"></circle><circle r="5" cx="811" cy="113"></circle><circle r="1" cx="781" cy="289"></circle><circle r="5" cx="783" cy="125"></circle><circle r="3" cx="295" cy="187"></circle><circle r="9" cx="894" cy="183"></circle><circle r="6" cx="696" cy="405"></circle><circle r="0" cx="776" cy="221"></circle><circle r="6" cx="315" cy="377"></circle><circle r="8" cx="704" cy="86"></circle><circle r="0" cx="354" cy="227"></circle><circle r="4" cx="396" cy="313"></circle><circle r="8" cx="141" cy="381"></circle><circle r="9" cx="213" cy="263"></circle><circle r="1" cx="442" cy="277"></circle><circle r="1" cx="356" cy="397"></circle><circle r="5" cx="614" cy="32"></circle><circle r="0" cx="372" cy="50"></circle><circle r="5" cx="296" cy="212"></circle><circle r="0" cx="793" cy="172"></circle><circle r="10" cx="826" cy="153"></circle><circle r="5" cx="728" cy="337"></circle><circle r="7" cx="812" cy="296"></circle><circle r="2" cx="357" cy="294"></circle><circle r="7" cx="551" cy="136"></circle><circle r="4" cx="747" cy="413"></circle><circle r="9" cx="339" cy="435"></circle><circle r="3" cx="280" cy="397"></circle><circle r="8" cx="287" cy="39"></circle><circle r="7" cx="48" cy="113"></circle><circle r="5" cx="432" cy="329"></circle><circle r="1" cx="267" cy="171"></circle><circle r="5" cx="602" cy="89"></circle><circle r="4" cx="517" cy="101"></circle><circle r="9" cx="578" cy="93"></circle><circle r="1" cx="677" cy="292"></circle><circle r="3" cx="558" cy="415"></circle><circle r="10" cx="303" cy="420"></circle><circle r="1" cx="576" cy="250"></circle><circle r="10" cx="241" cy="151"></circle><circle r="6" cx="310" cy="139"></circle><circle r="3" cx="629" cy="265"></circle><circle r="1" cx="748" cy="246"></circle><circle r="0" cx="694" cy="200"></circle><circle r="10" cx="621" cy="329"></circle><circle r="6" cx="170" cy="101"></circle><circle r="8" cx="617" cy="432"></circle><circle r="1" cx="427" cy="109"></circle><circle r="10" cx="106" cy="336"></circle><circle r="5" cx="249" cy="268"></circle><circle r="8" cx="229" cy="243"></circle><circle r="4" cx="442" cy="162"></circle><circle r="6" cx="428" cy="81"></circle><circle r="5" cx="809" cy="226"></circle><circle r="9" cx="592" cy="297"></circle><circle r="0" cx="713" cy="37"></circle><circle r="0" cx="473" cy="443"></circle><circle r="5" cx="84" cy="40"></circle><circle r="9" cx="98" cy="166"></circle><circle r="3" cx="390" cy="169"></circle><circle r="10" cx="504" cy="295"></circle><circle r="7" cx="479" cy="230"></circle><circle r="4" cx="499" cy="41"></circle><circle r="1" cx="181" cy="409"></circle><circle r="7" cx="349" cy="160"></circle><circle r="7" cx="130" cy="11"></circle><circle r="7" cx="862" cy="35"></circle><circle r="0" cx="748" cy="222"></circle><circle r="0" cx="171" cy="194"></circle><circle r="4" cx="195" cy="237"></circle><circle r="7" cx="513" cy="63"></circle><circle r="10" cx="872" cy="175"></circle><circle r="6" cx="358" cy="347"></circle><circle r="10" cx="866" cy="132"></circle><circle r="8" cx="490" cy="103"></circle><circle r="3" cx="281" cy="111"></circle><circle r="0" cx="44" cy="172"></circle><circle r="5" cx="220" cy="304"></circle><circle r="9" cx="583" cy="159"></circle><circle r="8" cx="591" cy="25"></circle><circle r="7" cx="840" cy="361"></circle><circle r="9" cx="49" cy="295"></circle><circle r="6" cx="115" cy="396"></circle><circle r="10" cx="369" cy="12"></circle><circle r="4" cx="232" cy="325"></circle><circle r="10" cx="612" cy="194"></circle><circle r="7" cx="660" cy="412"></circle><circle r="1" cx="154" cy="268"></circle><circle r="8" cx="387" cy="244"></circle><circle r="1" cx="530" cy="314"></circle><circle r="1" cx="758" cy="47"></circle><circle r="7" cx="4" cy="317"></circle><circle r="0" cx="833" cy="22"></circle><circle r="0" cx="341" cy="82"></circle><circle r="10" cx="803" cy="38"></circle><circle r="0" cx="889" cy="3"></circle><circle r="0" cx="121" cy="368"></circle><circle r="9" cx="37" cy="256"></circle><circle r="6" cx="102" cy="303"></circle><circle r="10" cx="10" cy="216"></circle><circle r="7" cx="761" cy="110"></circle><circle r="2" cx="732" cy="393"></circle><circle r="10" cx="44" cy="136"></circle><circle r="10" cx="270" cy="337"></circle><circle r="4" cx="180" cy="255"></circle><circle r="3" cx="797" cy="377"></circle><circle r="9" cx="749" cy="311"></circle><circle r="0" cx="878" cy="210"></circle><circle r="9" cx="224" cy="52"></circle><circle r="1" cx="653" cy="247"></circle><circle r="5" cx="278" cy="442"></circle><circle r="4" cx="845" cy="297"></circle><circle r="9" cx="255" cy="313"></circle><circle r="8" cx="692" cy="336"></circle><circle r="2" cx="512" cy="206"></circle><circle r="8" cx="474" cy="340"></circle><circle r="9" cx="732" cy="80"></circle><circle r="10" cx="487" cy="156"></circle><circle r="4" cx="692" cy="20"></circle><circle r="6" cx="866" cy="411"></circle><circle r="0" cx="265" cy="375"></circle><circle r="4" cx="514" cy="335"></circle><circle r="5" cx="544" cy="185"></circle><circle r="10" cx="339" cy="365"></circle><circle r="7" cx="135" cy="423"></circle><circle r="6" cx="8" cy="81"></circle><circle r="3" cx="642" cy="286"></circle><circle r="8" cx="849" cy="330"></circle><circle r="9" cx="572" cy="46"></circle><circle r="5" cx="356" cy="258"></circle><circle r="10" cx="769" cy="26"></circle><circle r="7" cx="658" cy="93"></circle><circle r="1" cx="263" cy="63"></circle><circle r="4" cx="191" cy="303"></circle><circle r="2" cx="3" cy="53"></circle><circle r="1" cx="651" cy="219"></circle><circle r="1" cx="377" cy="274"></circle><circle r="1" cx="676" cy="392"></circle><circle r="10" cx="827" cy="415"></circle><circle r="7" cx="716" cy="429"></circle><circle r="5" cx="733" cy="143"></circle><circle r="6" cx="490" cy="422"></circle><circle r="1" cx="302" cy="319"></circle><circle r="10" cx="90" cy="194"></circle><circle r="8" cx="432" cy="413"></circle><circle r="8" cx="100" cy="229"></circle><circle r="1" cx="527" cy="422"></circle><circle r="3" cx="754" cy="71"></circle><circle r="2" cx="582" cy="332"></circle><circle r="0" cx="413" cy="366"></circle><circle r="9" cx="431" cy="17"></circle><circle r="3" cx="779" cy="90"></circle><circle r="5" cx="531" cy="222"></circle><circle r="1" cx="268" cy="218"></circle><circle r="0" cx="476" cy="76"></circle><circle r="5" cx="735" cy="11"></circle><circle r="0" cx="324" cy="181"></circle><circle r="9" cx="337" cy="282"></circle><circle r="6" cx="598" cy="273"></circle><circle r="2" cx="716" cy="170"></circle><circle r="9" cx="77" cy="421"></circle><circle r="6" cx="533" cy="385"></circle><circle r="1" cx="3" cy="177"></circle><circle r="3" cx="294" cy="90"></circle><circle r="0" cx="299" cy="15"></circle><circle r="9" cx="793" cy="323"></circle><circle r="3" cx="624" cy="129"></circle><circle r="4" cx="420" cy="304"></circle><circle r="9" cx="250" cy="202"></circle><circle r="2" cx="206" cy="351"></circle><circle r="9" cx="16" cy="342"></circle><circle r="5" cx="195" cy="122"></circle><circle r="3" cx="550" cy="46"></circle><circle r="1" cx="761" cy="333"></circle><circle r="2" cx="788" cy="195"></circle><circle r="4" cx="854" cy="154"></circle><circle r="0" cx="661" cy="146"></circle><circle r="2" cx="707" cy="238"></circle><circle r="1" cx="117" cy="148"></circle><circle r="0" cx="394" cy="13"></circle><circle r="3" cx="20" cy="103"></circle><circle r="3" cx="290" cy="367"></circle><circle r="0" cx="59" cy="22"></circle><circle r="10" cx="707" cy="141"></circle><circle r="9" cx="608" cy="355"></circle><circle r="2" cx="332" cy="52"></circle><circle r="10" cx="73" cy="136"></circle><circle r="1" cx="162" cy="151"></circle><circle r="9" cx="787" cy="351"></circle><circle r="0" cx="145" cy="448"></circle><circle r="0" cx="159" cy="80"></circle><circle r="9" cx="654" cy="363"></circle><circle r="5" cx="785" cy="247"></circle><circle r="0" cx="710" cy="304"></circle><circle r="9" cx="772" cy="398"></circle><circle r="5" cx="551" cy="235"></circle><circle r="10" cx="331" cy="331"></circle><circle r="6" cx="724" cy="263"></circle><circle r="10" cx="163" cy="300"></circle><circle r="10" cx="668" cy="121"></circle><circle r="7" cx="306" cy="242"></circle><circle r="5" cx="24" cy="380"></circle><circle r="10" cx="309" cy="56"></circle><circle r="2" cx="741" cy="174"></circle><circle r="3" cx="746" cy="437"></circle><circle r="5" cx="473" cy="388"></circle><circle r="9" cx="346" cy="17"></circle><circle r="4" cx="406" cy="389"></circle><circle r="6" cx="216" cy="101"></circle><circle r="6" cx="383" cy="443"></circle><circle r="9" cx="723" cy="359"></circle><circle r="0" cx="369" cy="203"></circle><circle r="1" cx="815" cy="346"></circle><circle r="8" cx="397" cy="127"></circle><circle r="5" cx="818" cy="201"></circle><circle r="8" cx="867" cy="105"></circle><circle r="5" cx="236" cy="121"></circle><circle r="7" cx="560" cy="77"></circle><circle r="8" cx="752" cy="368"></circle><circle r="6" cx="25" cy="26"></circle><circle r="3" cx="525" cy="32"></circle><circle r="7" cx="581" cy="226"></circle><circle r="1" cx="14" cy="245"></circle><circle r="6" cx="518" cy="145"></circle><circle r="0" cx="892" cy="107"></circle><circle r="8" cx="738" cy="103"></circle><circle r="7" cx="200" cy="6"></circle><circle r="6" cx="565" cy="393"></circle><circle r="1" cx="791" cy="441"></circle><circle r="5" cx="457" cy="95"></circle><circle r="6" cx="540" cy="9"></circle><circle r="0" cx="434" cy="208"></circle><circle r="5" cx="735" cy="290"></circle><circle r="10" cx="389" cy="83"></circle><circle r="2" cx="876" cy="358"></circle><circle r="10" cx="50" cy="407"></circle><circle r="0" cx="256" cy="30"></circle><circle r="8" cx="432" cy="243"></circle><circle r="0" cx="596" cy="119"></circle><circle r="2" cx="398" cy="340"></circle><circle r="4" cx="590" cy="388"></circle><circle r="0" cx="287" cy="263"></circle><circle r="3" cx="279" cy="301"></circle><circle r="5" cx="555" cy="327"></circle><circle r="2" cx="865" cy="387"></circle><circle r="5" cx="139" cy="305"></circle><circle r="8" cx="619" cy="225"></circle><circle r="2" cx="79" cy="302"></circle><circle r="1" cx="244" cy="403"></circle><circle r="9" cx="119" cy="40"></circle><circle r="7" cx="321" cy="223"></circle><circle r="0" cx="36" cy="326"></circle><circle r="9" cx="152" cy="175"></circle><circle r="4" cx="39" cy="90"></circle><circle r="8" cx="645" cy="311"></circle><circle r="2" cx="853" cy="198"></circle><circle r="1" cx="77" cy="328"></circle><circle r="6" cx="208" cy="380"></circle><circle r="3" cx="589" cy="67"></circle><circle r="4" cx="132" cy="332"></circle><circle r="0" cx="210" cy="75"></circle><circle r="0" cx="891" cy="338"></circle><circle r="2" cx="855" cy="441"></circle><circle r="9" cx="203" cy="215"></circle><circle r="6" cx="502" cy="365"></circle><circle r="9" cx="267" cy="8"></circle><circle r="3" cx="312" cy="292"></circle><circle r="1" cx="721" cy="195"></circle><circle r="1" cx="574" cy="5"></circle><circle r="6" cx="787" cy="58"></circle><circle r="6" cx="630" cy="89"></circle><circle r="3" cx="696" cy="443"></circle><circle r="3" cx="188" cy="162"></circle><circle r="4" cx="675" cy="73"></circle><circle r="7" cx="724" cy="222"></circle><circle r="9" cx="23" cy="160"></circle><circle r="9" cx="89" cy="254"></circle><circle r="6" cx="322" cy="263"></circle><circle r="6" cx="448" cy="375"></circle><circle r="2" cx="286" cy="144"></circle><circle r="0" cx="522" cy="174"></circle><circle r="3" cx="174" cy="6"></circle><circle r="7" cx="59" cy="198"></circle><circle r="10" cx="151" cy="1"></circle><circle r="5" cx="40" cy="360"></circle><circle r="6" cx="575" cy="356"></circle><circle r="5" cx="116" cy="443"></circle><circle r="2" cx="57" cy="49"></circle><circle r="0" cx="329" cy="402"></circle><circle r="9" cx="888" cy="155"></circle><circle r="3" cx="899" cy="134"></circle><circle r="4" cx="109" cy="275"></circle><circle r="4" cx="380" cy="365"></circle><circle r="4" cx="162" cy="46"></circle><circle r="4" cx="394" cy="416"></circle><circle r="0" cx="181" cy="376"></circle><circle r="7" cx="39" cy="226"></circle><circle r="10" cx="39" cy="3"></circle><circle r="2" cx="189" cy="51"></circle><circle r="5" cx="633" cy="204"></circle><circle r="0" cx="456" cy="60"></circle><circle r="4" cx="249" cy="86"></circle><circle r="7" cx="126" cy="107"></circle><circle r="9" cx="247" cy="449"></circle><circle r="2" cx="439" cy="446"></circle><circle r="8" cx="247" cy="352"></circle><circle r="3" cx="2" cy="137"></circle><circle r="0" cx="323" cy="17"></circle><circle r="10" cx="849" cy="221"></circle><circle r="0" cx="818" cy="2"></circle><circle r="1" cx="73" cy="69"></circle><circle r="5" cx="885" cy="232"></circle><circle r="0" cx="490" cy="131"></circle><circle r="6" cx="406" cy="206"></circle><circle r="7" cx="649" cy="2"></circle><circle r="2" cx="16" cy="3"></circle><circle r="4" cx="114" cy="84"></circle><circle r="5" cx="182" cy="353"></circle><circle r="0" cx="29" cy="57"></circle><circle r="4" cx="468" cy="37"></circle><circle r="3" cx="59" cy="344"></circle><circle r="3" cx="800" cy="420"></circle><circle r="8" cx="643" cy="35"></circle><circle r="6" cx="689" cy="45"></circle><circle r="9" cx="646" cy="60"></circle><circle r="3" cx="661" cy="436"></circle><circle r="5" cx="666" cy="323"></circle><circle r="7" cx="557" cy="209"></circle><circle r="10" cx="544" cy="362"></circle><circle r="10" cx="484" cy="316"></circle><circle r="3" cx="859" cy="68"></circle><circle r="8" cx="502" cy="240"></circle><circle r="2" cx="699" cy="276"></circle><circle r="3" cx="676" cy="230"></circle><circle r="5" cx="766" cy="189"></circle><circle r="10" cx="279" cy="239"></circle><circle r="0" cx="334" cy="123"></circle><circle r="9" cx="573" cy="128"></circle><circle r="2" cx="826" cy="384"></circle><circle r="3" cx="501" cy="1"></circle><circle r="7" cx="236" cy="380"></circle><circle r="2" cx="588" cy="186"></circle><circle r="1" cx="43" cy="441"></circle><circle r="9" cx="361" cy="127"></circle><circle r="3" cx="127" cy="177"></circle><circle r="2" cx="413" cy="269"></circle><circle r="10" cx="468" cy="203"></circle><circle r="2" cx="415" cy="439"></circle><circle r="5" cx="653" cy="387"></circle><circle r="9" cx="478" cy="16"></circle><circle r="8" cx="148" cy="122"></circle><circle r="4" cx="348" cy="191"></circle><circle r="3" cx="721" cy="123"></circle><circle r="0" cx="364" cy="72"></circle><circle r="2" cx="605" cy="4"></circle><circle r="5" cx="640" cy="445"></circle><circle r="3" cx="494" cy="187"></circle><circle r="2" cx="25" cy="290"></circle><circle r="7" cx="662" cy="273"></circle><circle r="10" cx="102" cy="13"></circle><circle r="9" cx="838" cy="100"></circle><circle r="0" cx="544" cy="98"></circle><circle r="6" cx="459" cy="316"></circle><circle r="10" cx="455" cy="5"></circle><circle r="7" cx="898" cy="366"></circle><circle r="9" cx="376" cy="104"></circle><circle r="6" cx="431" cy="132"></circle><circle r="2" cx="89" cy="86"></circle><circle r="5" cx="398" cy="288"></circle><circle r="0" cx="794" cy="3"></circle><circle r="3" cx="154" cy="404"></circle><circle r="9" cx="20" cy="193"></circle><circle r="2" cx="173" cy="436"></circle><circle r="5" cx="233" cy="21"></circle><circle r="9" cx="67" cy="171"></circle><circle r="5" cx="88" cy="395"></circle><circle r="3" cx="734" cy="54"></circle><circle r="1" cx="875" cy="290"></circle><circle r="0" cx="226" cy="173"></circle><circle r="1" cx="311" cy="448"></circle><circle r="0" cx="355" cy="317"></circle><circle r="4" cx="699" cy="375"></circle><circle r="1" cx="259" cy="128"></circle><circle r="6" cx="160" cy="242"></circle><circle r="8" cx="773" cy="427"></circle><circle r="5" cx="210" cy="32"></circle><circle r="8" cx="764" cy="3"></circle><circle r="0" cx="143" cy="358"></circle><circle r="4" cx="146" cy="202"></circle><circle r="5" cx="889" cy="441"></circle><circle r="10" cx="822" cy="85"></circle><circle r="9" cx="669" cy="179"></circle><circle r="10" cx="825" cy="446"></circle><circle r="7" cx="231" cy="221"></circle><circle r="0" cx="209" cy="328"></circle><circle r="1" cx="88" cy="444"></circle><circle r="0" cx="184" cy="281"></circle><circle r="8" cx="270" cy="418"></circle><circle r="9" cx="606" cy="158"></circle><circle r="0" cx="801" cy="267"></circle><circle r="7" cx="764" cy="266"></circle><circle r="0" cx="446" cy="188"></circle><circle r="0" cx="136" cy="239"></circle><circle r="1" cx="107" cy="418"></circle><circle r="5" cx="59" cy="265"></circle><circle r="5" cx="77" cy="106"></circle><circle r="4" cx="387" cy="221"></circle><circle r="10" cx="690" cy="166"></circle><circle r="0" cx="559" cy="157"></circle><circle r="6" cx="4" cy="269"></circle><circle r="4" cx="623" cy="304"></circle><circle r="7" cx="709" cy="4"></circle><circle r="8" cx="115" cy="251"></circle><circle r="5" cx="842" cy="124"></circle><circle r="1" cx="467" cy="176"></circle><circle r="2" cx="301" cy="345"></circle><circle r="5" cx="540" cy="290"></circle><circle r="9" cx="508" cy="445"></circle><circle r="7" cx="465" cy="119"></circle><circle r="8" cx="454" cy="250"></circle><circle r="4" cx="631" cy="359"></circle><circle r="9" cx="888" cy="28"></circle><circle r="6" cx="585" cy="443"></circle><circle r="7" cx="416" cy="184"></circle><circle r="4" cx="761" cy="149"></circle><circle r="5" cx="189" cy="86"></circle><circle r="4" cx="207" cy="190"></circle><circle r="0" cx="395" cy="61"></circle><circle r="2" cx="642" cy="338"></circle><circle r="4" cx="888" cy="261"></circle><circle r="1" cx="557" cy="440"></circle><circle r="10" cx="316" cy="82"></circle><circle r="5" cx="608" cy="248"></circle><circle r="2" cx="613" cy="69"></circle><circle r="0" cx="369" cy="179"></circle><circle r="0" cx="197" cy="443"></circle><circle r="8" cx="184" cy="328"></circle><circle r="2" cx="2" cy="387"></circle><circle r="3" cx="861" cy="270"></circle><circle r="9" cx="820" cy="177"></circle><circle r="4" cx="898" cy="405"></circle><circle r="10" cx="124" cy="64"></circle><circle r="6" cx="250" cy="233"></circle><circle r="5" cx="367" cy="423"></circle><circle r="4" cx="379" cy="388"></circle><circle r="0" cx="665" cy="45"></circle><circle r="10" cx="446" cy="349"></circle><circle r="2" cx="850" cy="3"></circle><circle r="4" cx="668" cy="20"></circle><circle r="2" cx="534" cy="75"></circle><circle r="10" cx="208" cy="149"></circle><circle r="6" cx="177" cy="29"></circle><circle r="4" cx="634" cy="408"></circle><circle r="3" cx="672" cy="205"></circle><circle r="7" cx="2" cy="292"></circle><circle r="2" cx="452" cy="223"></circle><circle r="1" cx="707" cy="60"></circle><circle r="10" cx="533" cy="122"></circle><circle r="9" cx="681" cy="423"></circle><circle r="3" cx="681" cy="258"></circle><circle r="0" cx="79" cy="5"></circle><circle r="5" cx="531" cy="247"></circle><circle r="6" cx="842" cy="49"></circle><circle r="2" cx="801" cy="147"></circle><circle r="5" cx="821" cy="319"></circle><circle r="4" cx="29" cy="422"></circle><circle r="7" cx="679" cy="359"></circle><circle r="1" cx="844" cy="177"></circle><circle r="1" cx="222" cy="445"></circle><circle r="9" cx="376" cy="328"></circle><circle r="2" cx="375" cy="151"></circle><circle r="9" cx="5" cy="364"></circle><circle r="5" cx="883" cy="86"></circle><circle r="5" cx="476" cy="364"></circle><circle r="6" cx="611" cy="405"></circle><circle r="7" cx="94" cy="359"></circle><circle r="9" cx="230" cy="283"></circle><circle r="10" cx="534" cy="448"></circle><circle r="10" cx="336" cy="244"></circle><circle r="1" cx="872" cy="317"></circle><circle r="9" cx="560" cy="23"></circle><circle r="6" cx="102" cy="58"></circle><circle r="6" cx="898" cy="283"></circle><circle r="10" cx="237" cy="427"></circle><circle r="7" cx="409" cy="233"></circle><circle r="10" cx="490" cy="260"></circle><circle r="10" cx="176" cy="222"></circle><circle r="5" cx="352" cy="104"></circle><circle r="6" cx="681" cy="98"></circle><circle r="4" cx="149" cy="24"></circle><circle r="6" cx="86" cy="279"></circle><circle r="0" cx="131" cy="282"></circle><circle r="8" cx="174" cy="131"></circle><circle r="0" cx="269" cy="279"></circle><circle r="8" cx="139" cy="156"></circle><circle r="3" cx="405" cy="101"></circle><circle r="2" cx="49" cy="383"></circle><circle r="5" cx="641" cy="112"></circle><circle r="5" cx="352" cy="40"></circle><circle r="0" cx="332" cy="308"></circle><circle r="2" cx="628" cy="9"></circle><circle r="8" cx="360" cy="448"></circle><circle r="8" cx="306" cy="164"></circle></g></svg>