<svg xmlns="http://www.w3.org/2000/svg" version="1.1" xmlns:xlink="http://www.w3.org/1999/xlink" xmlns:svgjs="http://svgjs.dev/svgjs" width="1500" height="1500" viewBox="0 0 1500 1500"><rect width="1500" height="1500" fill="#ffffff"></rect><g transform="matrix(0.6666666666666666,0,0,0.6666666666666666,249.39393939393932,692.090333188382)"><svg viewBox="0 0 396 46" data-background-color="#ffffff" preserveAspectRatio="xMidYMid meet" height="174" width="1500" xmlns="http://www.w3.org/2000/svg" xmlns:xlink="http://www.w3.org/1999/xlink"><g id="tight-bounds" transform="matrix(1,0,0,1,0.24000000000003752,-0.03582178159979321)"><svg viewBox="0 0 395.5199999999999 46.07164356319958" height="46.07164356319958" width="395.5199999999999"><g><svg viewBox="0 0 625.3724066730297 72.84570847112693" height="46.07164356319958" width="395.5199999999999"><g transform="matrix(1,0,0,1,229.85240667302975,0)"><svg viewBox="0 0 395.5199999999999 72.84570847112693" height="72.84570847112693" width="395.5199999999999"><g id="textblocktransform"><svg viewBox="0 0 395.5199999999999 72.84570847112693" height="72.84570847112693" width="395.5199999999999" id="textblock"><g><svg viewBox="0 0 395.5199999999999 72.84570847112693" height="72.84570847112693" width="395.5199999999999"><g transform="matrix(1,0,0,1,0,0)"><svg width="395.5199999999999" viewBox="1.5 -35.6 196.54 36.2" height="72.84570847112693" data-palette-color="#556970"><path d="M13.2 0.6L13.2 0.6Q9.55 0.6 6.55-0.38 3.55-1.35 1.5-2.95L1.5-2.95 3.9-6.95Q5.7-5.45 7.95-4.5 10.2-3.55 13.2-3.55L13.2-3.55Q16.8-3.55 18.9-5.05 21-6.55 21-9.1L21-9.1Q21-10.55 20.4-11.68 19.8-12.8 18.07-13.88 16.35-14.95 13-16.2L13-16.2Q9.4-17.6 7.25-19.03 5.1-20.45 4.17-22.28 3.25-24.1 3.25-26.6L3.25-26.6Q3.25-29.1 4.63-31.13 6-33.15 8.68-34.38 11.35-35.6 15.15-35.6L15.15-35.6Q18.25-35.6 20.73-34.98 23.2-34.35 25.55-33.2L25.55-33.2 23.8-29.15Q22.1-30.15 19.83-30.83 17.55-31.5 15.05-31.5L15.05-31.5Q11.75-31.5 9.85-30.2 7.95-28.9 7.95-26.85L7.95-26.85Q7.95-25.55 8.5-24.55 9.05-23.55 10.68-22.6 12.3-21.65 15.55-20.45L15.55-20.45Q19.45-19 21.73-17.4 24-15.8 24.95-13.93 25.9-12.05 25.9-9.65L25.9-9.65Q25.9-6.4 24.28-4.1 22.65-1.8 19.78-0.6 16.9 0.6 13.2 0.6ZM37.65 0L32.9 0 32.9-35 37.65-35 37.65-20.05 54.9-20.05 54.9-35 59.65-35 59.65 0 54.9 0 54.9-15.95 37.65-15.95 37.65 0ZM83.15 0.6L83.15 0.6Q79.25 0.6 76.2-0.83 73.15-2.25 71.02-4.73 68.9-7.2 67.77-10.5 66.65-13.8 66.65-17.55L66.65-17.55Q66.65-22.7 68.62-26.78 70.6-30.85 74.3-33.23 78-35.6 83.15-35.6L83.15-35.6Q87-35.6 90.07-34.2 93.15-32.8 95.3-30.3 97.45-27.8 98.57-24.55 99.7-21.3 99.7-17.55L99.7-17.55Q99.7-13.8 98.57-10.5 97.45-7.2 95.3-4.73 93.15-2.25 90.1-0.83 87.05 0.6 83.15 0.6ZM83.15-3.5L83.15-3.5Q87-3.5 89.6-5.35 92.2-7.2 93.52-10.38 94.85-13.55 94.85-17.55L94.85-17.55Q94.85-20.25 94.05-22.75 93.25-25.25 91.75-27.23 90.25-29.2 88.07-30.35 85.9-31.5 83.15-31.5L83.15-31.5Q79.5-31.5 76.87-29.65 74.25-27.8 72.87-24.65 71.5-21.5 71.5-17.55L71.5-17.55Q71.5-14.85 72.27-12.33 73.05-9.8 74.55-7.8 76.05-5.8 78.22-4.65 80.4-3.5 83.15-3.5ZM131.54-1.5L127.09 0.6 122.74-8.9Q121.09-12.45 118.59-13.95 116.09-15.45 112.19-15.45L112.19-15.45 111.44-15.45 111.44 0 106.69 0 106.69-34.9Q109.34-35.15 111.77-35.27 114.19-35.4 116.94-35.4L116.94-35.4Q123.34-35.4 126.57-32.8 129.79-30.2 129.79-26.1L129.79-26.1Q129.79-22.45 127.62-20.23 125.44-18 121.34-16.9L121.34-16.9Q122.69-16.3 123.74-15.48 124.79-14.65 125.77-13.28 126.74-11.9 127.74-9.7L127.74-9.7 131.54-1.5ZM111.44-31.2L111.44-19.45 116.94-19.45Q120.54-19.45 122.79-21.05 125.04-22.65 125.04-25.65L125.04-25.65Q125.04-28.15 122.94-29.78 120.84-31.4 116.94-31.4L116.94-31.4Q115.24-31.4 113.89-31.35 112.54-31.3 111.44-31.2L111.44-31.2ZM147.54 0L142.79 0 142.79-30.8 132.04-30.8 132.04-35 158.29-35 158.29-30.8 147.54-30.8 147.54 0ZM168.04 0L163.29 0 163.29-35 168.04-35 168.04 0ZM198.04 0L177.04 0 177.04-35 198.04-35 198.04-30.9 181.79-30.9 181.79-20.25 195.79-20.25 195.79-16.25 181.79-16.25 181.79-4.1 198.04-4.1 198.04 0Z" opacity="1" transform="matrix(1,0,0,1,0,0)" fill="#556970" class="wordmark-text-0" data-fill-palette-color="primary" id="text-0"></path></svg></g></svg></g></svg></g></svg></g><g transform="matrix(1,0,0,1,0,1.7728023909554622)"><svg viewBox="0 0 212.65528319999999 69.300103689216" height="69.300103689216" width="212.65528319999999"><g><svg xmlns="http://www.w3.org/2000/svg" xmlns:xlink="http://www.w3.org/1999/xlink" version="1.1" x="0" y="0" viewBox="0 0 100 32.588" enable-background="new 0 0 100 32.587" xml:space="preserve" id="icon-0" width="212.65528319999999" height="69.300103689216" class="icon-icon-0" data-fill-palette-color="accent"></svg></g></svg></g></svg></g><defs></defs><mask id="20d6bb10-692f-4495-9551-0161fef1aae5"><g id="SvgjsG3951"><svg viewBox="0 0 395.5199999999999 46.07164356319958" height="46.07164356319958" width="395.5199999999999"><g><svg viewBox="0 0 625.3724066730297 72.84570847112693" height="46.07164356319958" width="395.5199999999999"><g transform="matrix(1,0,0,1,229.85240667302975,0)"><svg viewBox="0 0 395.5199999999999 72.84570847112693" height="72.84570847112693" width="395.5199999999999"><g id="SvgjsG3950"><svg viewBox="0 0 395.5199999999999 72.84570847112693" height="72.84570847112693" width="395.5199999999999" id="SvgjsSvg3949"><g><svg viewBox="0 0 395.5199999999999 72.84570847112693" height="72.84570847112693" width="395.5199999999999"><g transform="matrix(1,0,0,1,0,0)"><svg width="395.5199999999999" viewBox="1.5 -35.6 196.54 36.2" height="72.84570847112693" data-palette-color="#556970"><path d="M13.2 0.6L13.2 0.6Q9.55 0.6 6.55-0.38 3.55-1.35 1.5-2.95L1.5-2.95 3.9-6.95Q5.7-5.45 7.95-4.5 10.2-3.55 13.2-3.55L13.2-3.55Q16.8-3.55 18.9-5.05 21-6.55 21-9.1L21-9.1Q21-10.55 20.4-11.68 19.8-12.8 18.07-13.88 16.35-14.95 13-16.2L13-16.2Q9.4-17.6 7.25-19.03 5.1-20.45 4.17-22.28 3.25-24.1 3.25-26.6L3.25-26.6Q3.25-29.1 4.63-31.13 6-33.15 8.68-34.38 11.35-35.6 15.15-35.6L15.15-35.6Q18.25-35.6 20.73-34.98 23.2-34.35 25.55-33.2L25.55-33.2 23.8-29.15Q22.1-30.15 19.83-30.83 17.55-31.5 15.05-31.5L15.05-31.5Q11.75-31.5 9.85-30.2 7.95-28.9 7.95-26.85L7.95-26.85Q7.95-25.55 8.5-24.55 9.05-23.55 10.68-22.6 12.3-21.65 15.55-20.45L15.55-20.45Q19.45-19 21.73-17.4 24-15.8 24.95-13.93 25.9-12.05 25.9-9.65L25.9-9.65Q25.9-6.4 24.28-4.1 22.65-1.8 19.78-0.6 16.9 0.6 13.2 0.6ZM37.65 0L32.9 0 32.9-35 37.65-35 37.65-20.05 54.9-20.05 54.9-35 59.65-35 59.65 0 54.9 0 54.9-15.95 37.65-15.95 37.65 0ZM83.15 0.6L83.15 0.6Q79.25 0.6 76.2-0.83 73.15-2.25 71.02-4.73 68.9-7.2 67.77-10.5 66.65-13.8 66.65-17.55L66.65-17.55Q66.65-22.7 68.62-26.78 70.6-30.85 74.3-33.23 78-35.6 83.15-35.6L83.15-35.6Q87-35.6 90.07-34.2 93.15-32.8 95.3-30.3 97.45-27.8 98.57-24.55 99.7-21.3 99.7-17.55L99.7-17.55Q99.7-13.8 98.57-10.5 97.45-7.2 95.3-4.73 93.15-2.25 90.1-0.83 87.05 0.6 83.15 0.6ZM83.15-3.5L83.15-3.5Q87-3.5 89.6-5.35 92.2-7.2 93.52-10.38 94.85-13.55 94.85-17.55L94.85-17.55Q94.85-20.25 94.05-22.75 93.25-25.25 91.75-27.23 90.25-29.2 88.07-30.35 85.9-31.5 83.15-31.5L83.15-31.5Q79.5-31.5 76.87-29.65 74.25-27.8 72.87-24.65 71.5-21.5 71.5-17.55L71.5-17.55Q71.5-14.85 72.27-12.33 73.05-9.8 74.55-7.8 76.05-5.8 78.22-4.65 80.4-3.5 83.15-3.5ZM131.54-1.5L127.09 0.6 122.74-8.9Q121.09-12.45 118.59-13.95 116.09-15.45 112.19-15.45L112.19-15.45 111.44-15.45 111.44 0 106.69 0 106.69-34.9Q109.34-35.15 111.77-35.27 114.19-35.4 116.94-35.4L116.94-35.4Q123.34-35.4 126.57-32.8 129.79-30.2 129.79-26.1L129.79-26.1Q129.79-22.45 127.62-20.23 125.44-18 121.34-16.9L121.34-16.9Q122.69-16.3 123.74-15.48 124.79-14.65 125.77-13.28 126.74-11.9 127.74-9.7L127.74-9.7 131.54-1.5ZM111.44-31.2L111.44-19.45 116.94-19.45Q120.54-19.45 122.79-21.05 125.04-22.65 125.04-25.65L125.04-25.65Q125.04-28.15 122.94-29.78 120.84-31.4 116.94-31.4L116.94-31.4Q115.24-31.4 113.89-31.35 112.54-31.3 111.44-31.2L111.44-31.2ZM147.54 0L142.79 0 142.79-30.8 132.04-30.8 132.04-35 158.29-35 158.29-30.8 147.54-30.8 147.54 0ZM168.04 0L163.29 0 163.29-35 168.04-35 168.04 0ZM198.04 0L177.04 0 177.04-35 198.04-35 198.04-30.9 181.79-30.9 181.79-20.25 195.79-20.25 195.79-16.25 181.79-16.25 181.79-4.1 198.04-4.1 198.04 0Z" opacity="1" transform="matrix(1,0,0,1,0,0)" fill="black" class="wordmark-text-0" id="SvgjsPath3948"></path></svg></g></svg></g></svg></g></svg></g><g transform="matrix(1,0,0,1,0,1.7728023909554622)"><svg viewBox="0 0 212.65528319999999 69.300103689216" height="69.300103689216" width="212.65528319999999"><g><svg xmlns="http://www.w3.org/2000/svg" xmlns:xlink="http://www.w3.org/1999/xlink" version="1.1" x="0" y="0" viewBox="0 0 100 32.588" enable-background="new 0 0 100 32.587" xml:space="preserve" id="SvgjsSvg3947" width="212.65528319999999" height="69.300103689216" class="icon-icon-0" data-fill-palette-color="accent"><path d="M38.935 16.293A5.68 5.68 0 0 0 44.609 21.97H55.363A5.68 5.68 0 0 0 61.034 16.293 5.68 5.68 0 0 0 55.363 10.617H44.609A5.683 5.683 0 0 0 38.935 16.293" fill="white"></path><path d="M85.704 0H66.88C61.922 0 57.547 2.542 54.984 6.391H57.024C60.263 6.391 63.133 7.96 64.942 10.373A4.3 4.3 0 0 1 66.88 9.9H85.704C88.129 9.9 90.104 11.875 90.104 14.305V18.283A4.41 4.41 0 0 1 85.704 22.686H66.88A4.3 4.3 0 0 1 64.942 22.216C63.133 24.627 60.263 26.198 57.024 26.198H54.984C57.546 30.044 61.922 32.586 66.88 32.586H85.704C93.587 32.586 100 26.17 100 18.282V14.304C100 6.418 93.587 0 85.704 0" fill="white"></path><path d="M35.04 22.226A4.34 4.34 0 0 1 33.119 22.686H14.298A4.41 4.41 0 0 1 9.895 18.283V14.305A4.41 4.41 0 0 1 14.298 9.9H33.119C33.811 9.9 34.457 10.077 35.04 10.36 36.848 7.952 39.716 6.39 42.948 6.39H45.018C42.453 2.542 38.077 0 33.119 0H14.298C6.416 0 0 6.418 0 14.306V18.284C0 26.172 6.416 32.588 14.298 32.588H33.119C38.077 32.588 42.452 30.046 45.017 26.2H42.947C39.716 26.199 36.848 24.634 35.04 22.226" fill="white"></path></svg></g></svg></g></svg></g><defs><mask></mask></defs></svg><rect width="395.5199999999999" height="46.07164356319958" fill="black" stroke="none" visibility="hidden"></rect></g></mask><linearGradient x1="0" x2="1" y1="0.578" y2="0.595" id="30167ffa-86b6-48a0-adf0-d449e56555a1"><stop stop-color="#6ee2f5" offset="0"></stop><stop stop-color="#6454f0" offset="1"></stop></linearGradient><rect width="395.5199999999999" height="46.071643563199586" fill="url(#30167ffa-86b6-48a0-adf0-d449e56555a1)" mask="url(#20d6bb10-692f-4495-9551-0161fef1aae5)" data-fill-palette-color="accent"></rect></svg><rect width="395.5199999999999" height="46.07164356319958" fill="none" stroke="none" visibility="hidden"></rect></g></svg></g></svg>